<svg xmlns="http://www.w3.org/2000/svg" width="2384" height="2384" viewBox="0 0 2384 2384"><path d="M2224.927 1017.432l52.165-69.213H1062.058l71.018-98.826h826.829l50.327-69.213h-827.419l15.854-22.062-.328-.236c-75.005-33.873-157.671-48.215-223.671-56.882l-.385-.122-141.527 444.734a227.899 227.899 0 0 0-19.987-5.407l97.799-442.035-.394-.09c-85.272-6.91-139.235-1.737-209.167 11.962l-.402.038 40.771 425.631a229.279 229.279 0 0 0-19.962 2.715L644.57 724.009l-.398.071c-72.333 21-121.019 45.378-183.644 82.809l-.356.191 193.3 355.229a229.753 229.753 0 0 0-16.935 10.154L414.678 837.024l-.339.221c-58.188 45.257-94.807 80.649-141.634 136.039l-.252.315 310.904 247.332a230.544 230.544 0 0 0-12.037 16.471l-332.981-219.706-.226.336c-39.977 60.39-63.566 107.619-88.999 176.824l-.108.389 392.325 107.811a228.189 228.189 0 0 0-4.287 18.483l-403.217-75.756-.077.397c-12.076 66.969-23.41 118.2-15.41 203.064l.052.4 416.591-55.305a228.67 228.67 0 0 0 3.466 19.745l-415.442 92.492.084.396c15.671 70.707 33.623 129.523 70.378 191.923l.205.349 371.071-218.384c39.94 67.732 113.636 113.185 197.958 113.185 126.84 0 229.665-102.824 229.665-229.664 0-76.114-37.037-143.568-94.061-185.357h624.763l48.819-69.213H945.935l66.385-92.38h1212.607zM826.411 1491.147c-16.626 15.866-39.321 23.798-68.081 23.798-19.781 0-37.216-4.354-52.296-13.059-15.083-8.704-27.674-21.341-37.776-37.907l22.308-19.164c6.734 12.861 15.958 23.17 27.674 30.927 11.713 7.757 25.076 11.634 40.09 11.634 17.958 0 32.794-5.051 44.511-15.152 11.713-10.102 17.572-23.008 17.572-38.723 0-12.627-3.334-23.044-9.996-31.252-6.666-8.207-31.462-20.588-74.394-37.144-22.029-8.557-37.743-19.361-47.141-32.41-9.401-13.047-14.1-28.269-14.1-45.667 0-23.57 8.451-43.037 25.359-58.399 16.905-15.363 38.334-23.045 64.292-23.045 15.152 0 29.463 3.124 42.932 9.372s25.392 15.478 35.776 27.69l-21.045 22.324c-7.155-10.536-15.82-18.471-25.99-23.811-10.174-5.337-20.871-8.007-32.094-8.007-17.54 0-31.64 5.126-42.3 15.376-10.665 10.253-15.995 23.38-15.995 39.387 0 12.92 4.419 23.804 13.258 32.649s24.412 16.921 46.72 24.222c31.705 10.391 53.908 22.393 66.607 36.013 12.695 13.62 19.046 31.098 19.046 52.435.002 22.745-8.312 42.051-24.937 57.913z"/><path d="M1014.36 1299.035l61.284 111.865 59.363-111.865 20.321 3.398-79.364 148.965h-.641l-79.205-148.965 18.242-3.398zm308.404 108.467v22.939c-9.708 7.271-19.977 12.58-30.802 15.93a111.684 111.684 0 0 1-33.202 5.027c-24.749 0-45.338-7.269-61.764-21.807-16.429-14.536-24.642-32.757-24.642-54.658 0-21.24 8.08-39.199 24.241-53.879 16.161-14.679 36.348-22.02 60.563-22.02 15.361 0 29.067 3.093 41.123 9.275 12.053 6.184 21.706 14.608 28.962 25.275l-126.728 66.978c5.439 10.386 13.493 18.527 24.161 24.427 10.666 5.9 21.813 8.85 33.442 8.85 11.306 0 22.721-2.479 34.241-7.434 11.524-4.956 21.657-11.257 30.405-18.903zm-128.168-22.656l103.847-55.083c-5.655-4.956-11.976-8.627-18.961-11.01-6.988-2.383-14.429-3.575-22.322-3.575-18.456 0-33.762 5.536-45.923 16.603-12.16 11.067-18.24 24.689-18.24 40.863 0 1.987.132 3.974.399 5.961a58.672 58.672 0 0 0 1.2 6.241zm178.154-82.412v-35.684l19.841-9.204v44.888h44.483v16.143h-44.483v90.594c0 9.262 2.355 15.926 7.065 19.99 4.711 4.064 12.203 6.096 22.481 6.096 2.891 0 5.458-.259 7.708-.779 2.248-.518 4.818-1.392 7.708-2.619v16.709c-2.88.85-6.08 1.533-9.601 2.053-3.52.519-6.936.779-10.24.779-14.721 0-25.896-3.662-33.522-10.985-7.628-7.323-11.44-17.366-11.44-30.123v-91.714h-21.922l4.48-16.143h17.442zm127.593-64.288V1448l-19.841 3.398v-209.854l19.841-3.398zm74.068 0l14.921 15.01-14.921 15.151-15.079-15.151 15.079-15.01zm10 209.854l-19.841 3.398v-148.965l19.841-3.398V1448zm64.708-145.566v-35.684l19.841-9.204v44.888h44.483v16.143h-44.483v90.594c0 9.262 2.355 15.926 7.065 19.99 4.711 4.064 12.203 6.096 22.481 6.096 2.891 0 5.458-.259 7.708-.779 2.248-.518 4.818-1.392 7.708-2.619v16.709c-2.88.85-6.08 1.533-9.601 2.053-3.52.519-6.936.779-10.24.779-14.721 0-25.896-3.662-33.522-10.985-7.628-7.323-11.44-17.366-11.44-30.123v-91.714h-21.922l4.48-16.143h17.442zm198.156 14.018l-11.224 13.027c-5.45-4.671-11.49-8.222-18.116-10.653-6.625-2.432-13.785-3.648-21.48-3.648-9.941 0-17.849 2.15-23.727 6.449-5.881 4.302-8.818 10.136-8.818 17.506 0 6.049 1.87 10.94 5.61 14.674 3.74 3.732 16.831 8.434 39.274 14.103 14.321 3.591 24.739 8.717 31.26 15.379 6.521 6.664 9.78 15.003 9.78 25.02 0 13.136-5.36 23.601-16.081 31.397-10.72 7.797-24.776 11.693-42.162 11.693-10.136 0-19.602-1.936-28.401-5.806-8.801-3.87-16.722-9.346-23.762-16.426l13.121-12.461c5.013 5.759 10.905 10.29 17.681 13.594 6.772 3.306 14.321 4.956 22.642 4.956 10.24 0 18.854-2.336 25.842-7.01 6.985-4.672 10.48-11.021 10.48-19.045 0-6.89-2.375-12.483-7.121-16.779-4.747-4.295-17.2-8.943-37.362-13.948-13.868-3.398-24.108-8.425-30.722-15.081-6.615-6.654-9.92-15.08-9.92-25.275 0-11.421 4.88-20.791 14.641-28.107 9.761-7.315 22.161-10.975 37.202-10.975 10.133 0 19.386 1.44 27.762 4.318 8.373 2.88 16.241 7.246 23.601 13.098zm49.828 11.328l8.161-20.957c7.681-2.454 15.333-4.365 22.961-5.735 7.626-1.367 15.014-2.053 22.161-2.053 18.241 0 32.587 3.848 43.043 11.541 10.453 7.694 15.681 19.094 15.681 34.196V1448l-19.041 3.398v-20.674h-.96c-4.8 6.514-11.256 11.589-19.361 15.223-8.107 3.633-17.389 5.451-27.842 5.451-16.748 0-31.042-4.814-42.882-14.443-11.841-9.629-17.762-22.373-17.762-38.232 0-14.536 5.636-26.81 16.906-36.816 11.271-10.005 25.879-15.01 43.828-15.01 9.505 0 18.293 1.606 26.358 4.814 8.065 3.21 14.823 7.695 20.274 13.452h.64v-22.151c0-8.331-3.607-15.052-10.82-20.165-7.213-5.111-16.749-7.669-28.609-7.669-6.413 0-13.198.766-20.359 2.292-7.16 1.526-14.798 3.771-22.919 6.73l-9.458 3.58zm46.083 35.259c-12.695 0-22.749 3.398-30.162 10.195-7.415 6.797-11.12 14.917-11.12 24.355 0 11.14 4.08 20.202 12.24 27.188 8.161 6.987 18.534 10.479 31.122 10.479 13.653 0 24.534-3.516 32.643-10.549 8.105-7.032 12.16-15.411 12.16-25.135 0-10.95-4.455-19.775-13.36-26.479-8.909-6.702-20.082-10.054-33.523-10.054z"/><path d="M1021.578 1535.795h-25.221v-58.05l5.665-.703v53.337h21.169l-1.613 5.416zm15.046-61.274l3.856 4.383-3.856 4.424-3.896-4.424 3.896-4.383zm2.584 61.274l-5.127.992v-43.496l5.127-.992v43.496zm48.971-45.025l-1.613 5.336a20.902 20.902 0 0 1-3.721.331 15.27 15.27 0 0 1-1.571-.063 5.622 5.622 0 0 1-1.199-.269v.331c2.315 1.296 4.038 2.958 5.169 4.985 1.13 2.027 1.694 4.379 1.694 7.055 0 3.089-.813 5.716-2.439 7.881-1.626 2.166-3.872 3.717-6.739 4.655v.33c3.004 1.047 5.341 2.858 7.009 5.435 1.667 2.575 2.501 5.337 2.501 8.283 0 4.656-1.682 8.532-5.044 11.632-3.363 3.099-7.76 4.648-13.189 4.648-4.3 0-8.042-.93-11.226-2.791-3.184-1.86-5.782-4.431-7.793-7.711l3.886-2.77a19.101 19.101 0 0 0 6.408 6.223c2.619 1.557 5.582 2.336 8.89 2.336 3.859 0 6.946-1.055 9.262-3.163 2.315-2.109 3.473-4.941 3.473-8.497 0-3.279-1.164-6.001-3.493-8.166-2.33-2.163-5.368-3.245-9.117-3.245-2.15 0-4.189.241-6.119.724s-3.735 1.165-5.416 2.047l2.108-5.886c-2.619-1.269-4.61-3.015-5.974-5.235-1.365-2.221-2.047-4.684-2.047-7.388 0-4.579 1.598-8.311 4.796-11.194 3.197-2.883 7.497-4.325 12.899-4.325.717 0 1.75.042 3.102.124 1.35.083 2.287.124 2.812.124 1.598 0 3.107-.082 4.527-.248 1.417-.165 4.138-.675 8.164-1.529zm-18.855 6.243c-3.556 0-6.464 1.017-8.724 3.051-2.261 2.033-3.391 4.558-3.391 7.573 0 3.155 1.13 5.812 3.391 7.969 2.26 2.159 5.251 3.237 8.972 3.237 3.501 0 6.381-1.051 8.642-3.153 2.26-2.104 3.391-4.621 3.391-7.555 0-2.904-1.116-5.484-3.35-7.739-2.233-2.255-5.209-3.383-8.931-3.383zm35.988 38.782l-5.127.992v-61.274l5.127-.992v24.05h.165a14.515 14.515 0 0 1 5.632-4.673c2.264-1.065 4.914-1.599 7.95-1.599 4.141 0 7.646 1.269 10.517 3.804 2.871 2.536 4.307 6.01 4.307 10.42v29.272l-5.127.992v-28.683c0-3.697-.989-6.47-2.967-8.318-1.978-1.85-4.53-2.773-7.655-2.773-3.624 0-6.667 1.173-9.129 3.518-2.462 2.346-3.692 5.299-3.692 8.857v26.407zm43.471-42.504v-10.419l5.127-2.688v13.106h11.494v4.714h-11.494v26.452c0 2.704.608 4.65 1.825 5.837s3.153 1.78 5.81 1.78c.746 0 1.41-.076 1.991-.228s1.245-.406 1.992-.766v4.879a16.41 16.41 0 0 1-2.481.6c-.909.151-1.792.228-2.646.228-3.804 0-6.691-1.069-8.662-3.207-1.971-2.139-2.956-5.071-2.956-8.796v-26.779h-5.665l1.158-4.714h4.507zm52.128 43.165v-58.711h9.923c6.753 0 12.162 1.854 16.229 5.562 4.065 3.707 6.099 8.482 6.099 14.326 0 5.485-2.047 10.088-6.14 13.81-4.094 3.721-9.462 5.581-16.104 5.581-.854 0-1.633-.021-2.336-.062s-1.372-.104-2.006-.187v19.02l-5.665.661zm5.664-53.584v28.487c.552.083 1.158.145 1.819.187.662.041 1.723.062 3.184.062 4.549 0 8.27-1.274 11.164-3.824s4.341-5.96 4.341-10.233c0-3.996-1.357-7.442-4.072-10.336-2.716-2.895-6.416-4.342-11.102-4.342h-5.334zm73.861 41.098v6.698c-2.509 2.123-5.162 3.674-7.959 4.651a25.802 25.802 0 0 1-8.579 1.468c-6.396 0-11.716-2.122-15.96-6.367-4.245-4.244-6.367-9.564-6.367-15.96 0-6.201 2.088-11.445 6.264-15.731s9.393-6.43 15.649-6.43c3.97 0 7.511.903 10.626 2.708 3.114 1.806 5.609 4.266 7.483 7.381l-32.746 19.557c1.406 3.032 3.487 5.409 6.243 7.132 2.757 1.723 5.637 2.584 8.642 2.584 2.922 0 5.871-.724 8.849-2.171 2.976-1.447 5.594-3.287 7.855-5.52zm-33.119-6.616l26.833-16.083c-1.461-1.447-3.094-2.52-4.899-3.215-1.806-.696-3.728-1.044-5.768-1.044-4.769 0-8.724 1.616-11.866 4.848s-4.713 7.209-4.713 11.932c0 .58.034 1.16.103 1.74s.172 1.188.31 1.822zm44.422-24.063l4.92-.992v9.965h.248c1.13-3.335 3.114-5.934 5.954-7.794 2.838-1.86 6.16-2.791 9.964-2.791.413 0 .841.021 1.282.063.44.041.882.09 1.322.145l-2.444 5.747a13.045 13.045 0 0 0-1.243-.187 13.056 13.056 0 0 0-1.284-.062c-3.619 0-6.79 1.64-9.511 4.92s-4.082 7.222-4.082 11.825v21.665l-5.126.992v-43.496zm30.034 0h4.382v-4.383c0-4.878 1.199-8.523 3.598-10.936s5.691-3.618 9.882-3.618h.744c.275 0 .647.028 1.116.083l1.199.083 1.281 5.003a11.182 11.182 0 0 0-1.742-.352 14.968 14.968 0 0 0-1.742-.104c-3.152 0-5.476.861-6.969 2.584-1.494 1.723-2.24 4.473-2.24 8.249v3.39h12.032v4.714h-12.032v37.79l-5.127.992v-38.782h-5.416l1.034-4.713zm26.933 21.252c0-6.174 2.163-11.425 6.491-15.753 4.327-4.327 9.551-6.491 15.67-6.491s11.35 2.164 15.69 6.491c4.342 4.328 6.512 9.579 6.512 15.753 0 6.147-2.164 11.391-6.491 15.732-4.327 4.341-9.564 6.512-15.711 6.512s-11.377-2.171-15.691-6.512c-4.314-4.341-6.47-9.585-6.47-15.732zm5.333-.021c0 4.802 1.646 8.928 4.941 12.377 3.293 3.45 7.256 5.175 11.887 5.175 4.658 0 8.634-1.725 11.928-5.175 3.294-3.449 4.941-7.575 4.941-12.377s-1.647-8.92-4.941-12.356c-3.294-3.436-7.27-5.153-11.928-5.153-4.604 0-8.559 1.711-11.866 5.133s-4.962 7.547-4.962 12.376zm49.509-21.231l4.92-.992v9.965h.248c1.13-3.335 3.114-5.934 5.954-7.794 2.838-1.86 6.16-2.791 9.964-2.791.413 0 .841.021 1.282.063.44.041.882.09 1.322.145l-2.444 5.747a13.045 13.045 0 0 0-1.243-.187 13.056 13.056 0 0 0-1.284-.062c-3.619 0-6.79 1.64-9.511 4.92s-4.082 7.222-4.082 11.825v21.665l-5.126.992v-43.496zm32.058 43.496v-43.496l4.755-.992v7.69h.248c1.296-2.48 3.04-4.383 5.233-5.706 2.192-1.322 4.626-1.984 7.301-1.984 2.703 0 5.116.628 7.239 1.882 2.124 1.254 3.669 3.107 4.634 5.561h.165c1.463-2.398 3.339-4.238 5.629-5.52 2.29-1.282 4.897-1.923 7.823-1.923 4.139 0 7.477 1.24 10.016 3.722 2.538 2.48 3.808 5.761 3.808 9.84v29.935l-5.127.992v-29.717c0-3.366-.816-5.885-2.449-7.554-1.633-1.67-3.957-2.504-6.974-2.504-3.515 0-6.275 1.173-8.282 3.518-2.006 2.346-3.009 5.685-3.009 10.017v25.248l-5.127.992v-28.931c0-3.863-.81-6.636-2.429-8.319-1.619-1.683-3.867-2.524-6.746-2.524-3.681 0-6.531 1.27-8.551 3.808-2.021 2.539-3.03 5.698-3.03 9.479v25.496l-5.127.99zm71.049-36.095l2.109-6.119a42.198 42.198 0 0 1 5.933-1.675c1.971-.399 3.88-.6 5.727-.6 4.713 0 8.42 1.124 11.122 3.37 2.701 2.247 4.052 5.575 4.052 9.984v30.142l-4.92.992v-6.036h-.248c-1.24 1.901-2.908 3.384-5.003 4.444s-4.493 1.592-7.194 1.592c-4.328 0-8.021-1.405-11.081-4.217s-4.589-6.533-4.589-11.164c0-4.244 1.456-7.828 4.368-10.75 2.912-2.921 6.688-4.382 11.325-4.382 2.456 0 4.727.469 6.811 1.405 2.085.938 3.831 2.247 5.239 3.928h.165v-6.468c0-2.433-.932-4.396-2.796-5.888-1.864-1.493-4.328-2.239-7.393-2.239-1.657 0-3.41.224-5.261.669-1.85.446-3.823 1.101-5.922 1.965l-2.444 1.047zm11.908 10.295c-3.281 0-5.879.992-7.794 2.977-1.916 1.985-2.874 4.355-2.874 7.112 0 3.252 1.055 5.898 3.163 7.938 2.109 2.04 4.789 3.06 8.042 3.06 3.528 0 6.34-1.027 8.435-3.081 2.095-2.053 3.143-4.499 3.143-7.339 0-3.197-1.151-5.773-3.452-7.731-2.302-1.957-5.19-2.936-8.663-2.936zm30.406 25.8v-43.496l5.127-.992v7.938h.165c1.354-2.508 3.278-4.458 5.776-5.851 2.498-1.392 5.238-2.088 8.22-2.088 4.057 0 7.5 1.358 10.33 4.072 2.829 2.716 4.244 6.526 4.244 11.433v27.991l-5.127.992v-29.013c0-3.532-.976-6.209-2.925-8.03-1.95-1.82-4.461-2.731-7.531-2.731-3.872 0-7.032 1.414-9.48 4.242s-3.672 6.354-3.672 10.575v23.965l-5.127.993zm81.634-39.154l-3.143 3.969c-1.71-1.501-3.591-2.642-5.644-3.421a17.663 17.663 0 0 0-6.306-1.168c-4.631 0-8.579 1.621-11.846 4.863-3.266 3.243-4.899 7.431-4.899 12.563 0 5.217 1.626 9.459 4.879 12.729 3.252 3.27 7.291 4.905 12.114 4.905 2.232 0 4.3-.365 6.202-1.096 1.901-.73 3.68-1.854 5.334-3.37l3.101 3.887c-2.288 1.875-4.646 3.225-7.07 4.052a23.287 23.287 0 0 1-7.566 1.24c-6.257 0-11.542-2.095-15.856-6.284-4.313-4.189-6.47-9.537-6.47-16.043 0-6.091 2.136-11.308 6.408-15.649 4.272-4.341 9.605-6.512 16.001-6.512 2.756 0 5.375.441 7.855 1.323 2.481.884 4.782 2.22 6.906 4.012zm47.564 26.337v6.698c-2.509 2.123-5.162 3.674-7.959 4.651a25.802 25.802 0 0 1-8.579 1.468c-6.396 0-11.716-2.122-15.96-6.367-4.245-4.244-6.367-9.564-6.367-15.96 0-6.201 2.088-11.445 6.264-15.731s9.393-6.43 15.649-6.43c3.97 0 7.511.903 10.626 2.708 3.114 1.806 5.609 4.266 7.483 7.381l-32.746 19.557c1.406 3.032 3.487 5.409 6.243 7.132 2.757 1.723 5.637 2.584 8.642 2.584 2.922 0 5.871-.724 8.849-2.171 2.976-1.447 5.594-3.287 7.855-5.52zm-33.118-6.616l26.833-16.083c-1.461-1.447-3.094-2.52-4.899-3.215-1.806-.696-3.728-1.044-5.768-1.044-4.769 0-8.724 1.616-11.866 4.848s-4.713 7.209-4.713 11.932c0 .58.034 1.16.103 1.74s.171 1.188.31 1.822zm85.577-34.193v52.634l-5.664.661v-53.295h-15.918l1.157-5.416h35.475v5.416h-15.05zm29.826 52.634l-5.127.992v-61.274l5.127-.992v24.05h.165a14.515 14.515 0 0 1 5.632-4.673c2.264-1.065 4.914-1.599 7.95-1.599 4.141 0 7.646 1.269 10.517 3.804 2.871 2.536 4.307 6.01 4.307 10.42v29.272l-5.127.992v-28.683c0-3.697-.989-6.47-2.967-8.318-1.978-1.85-4.53-2.773-7.655-2.773-3.624 0-6.667 1.173-9.129 3.518-2.462 2.346-3.692 5.299-3.692 8.857v26.407zm78.202-11.825v6.698c-2.509 2.123-5.162 3.674-7.959 4.651a25.802 25.802 0 0 1-8.579 1.468c-6.396 0-11.716-2.122-15.96-6.367-4.245-4.244-6.367-9.564-6.367-15.96 0-6.201 2.088-11.445 6.264-15.731s9.393-6.43 15.649-6.43c3.97 0 7.511.903 10.626 2.708 3.114 1.806 5.609 4.266 7.483 7.381l-32.746 19.557c1.406 3.032 3.487 5.409 6.243 7.132 2.757 1.723 5.637 2.584 8.642 2.584 2.922 0 5.871-.724 8.849-2.171 2.976-1.447 5.595-3.287 7.855-5.52zm-33.118-6.616l26.833-16.083c-1.461-1.447-3.094-2.52-4.899-3.215-1.806-.696-3.728-1.044-5.768-1.044-4.769 0-8.724 1.616-11.866 4.848s-4.713 7.209-4.713 11.932c0 .58.034 1.16.103 1.74s.171 1.188.31 1.822zm45.372-16.662l2.109-6.119a42.198 42.198 0 0 1 5.933-1.675c1.971-.399 3.88-.6 5.727-.6 4.713 0 8.42 1.124 11.122 3.37 2.701 2.247 4.052 5.575 4.052 9.984v30.142l-4.92.992v-6.036h-.248c-1.24 1.901-2.908 3.384-5.003 4.444s-4.493 1.592-7.194 1.592c-4.328 0-8.021-1.405-11.081-4.217s-4.589-6.533-4.589-11.164c0-4.244 1.456-7.828 4.368-10.75 2.912-2.921 6.688-4.382 11.325-4.382 2.456 0 4.727.469 6.811 1.405 2.085.938 3.831 2.247 5.239 3.928h.165v-6.468c0-2.433-.932-4.396-2.796-5.888-1.864-1.493-4.328-2.239-7.393-2.239-1.657 0-3.41.224-5.261.669-1.85.446-3.823 1.101-5.922 1.965l-2.444 1.047zm11.908 10.295c-3.281 0-5.879.992-7.794 2.977-1.916 1.985-2.874 4.355-2.874 7.112 0 3.252 1.055 5.898 3.163 7.938 2.109 2.04 4.789 3.06 8.042 3.06 3.528 0 6.34-1.027 8.435-3.081 2.095-2.053 3.143-4.499 3.143-7.339 0-3.197-1.151-5.773-3.452-7.731-2.302-1.957-5.19-2.936-8.663-2.936zm31.936-17.696v-10.419l5.127-2.688v13.106h11.494v4.714h-11.494v26.452c0 2.704.608 4.65 1.825 5.837s3.153 1.78 5.81 1.78c.746 0 1.41-.076 1.991-.228s1.245-.406 1.992-.766v4.879a16.41 16.41 0 0 1-2.481.6c-.909.151-1.792.228-2.646.228-3.804 0-6.691-1.069-8.662-3.207-1.971-2.139-2.956-5.071-2.956-8.796v-26.779h-5.665l1.158-4.714h4.507zm26.395 0l4.92-.992v9.965h.248c1.13-3.335 3.114-5.934 5.954-7.794 2.838-1.86 6.16-2.791 9.964-2.791.413 0 .841.021 1.282.063.44.041.882.09 1.322.145l-2.444 5.747a13.045 13.045 0 0 0-1.243-.187 13.056 13.056 0 0 0-1.284-.062c-3.619 0-6.79 1.64-9.511 4.92s-4.082 7.222-4.082 11.825v21.665l-5.126.992v-43.496zm68.32 30.679v6.698c-2.509 2.123-5.162 3.674-7.959 4.651a25.802 25.802 0 0 1-8.579 1.468c-6.396 0-11.716-2.122-15.96-6.367-4.245-4.244-6.367-9.564-6.367-15.96 0-6.201 2.088-11.445 6.264-15.731s9.393-6.43 15.649-6.43c3.97 0 7.511.903 10.626 2.708 3.114 1.806 5.609 4.266 7.483 7.381l-32.746 19.557c1.406 3.032 3.487 5.409 6.243 7.132 2.757 1.723 5.637 2.584 8.642 2.584 2.922 0 5.871-.724 8.849-2.171 2.976-1.447 5.594-3.287 7.855-5.52zm-33.118-6.616l26.833-16.083c-1.461-1.447-3.094-2.52-4.899-3.215-1.806-.696-3.728-1.044-5.768-1.044-4.769 0-8.724 1.616-11.866 4.848s-4.713 7.209-4.713 11.932c0 .58.034 1.16.103 1.74s.171 1.188.31 1.822z" fill="#414042"/></svg>